<svg xmlns="http://www.w3.org/2000/svg" width="573.696" height="167.557" viewBox="0 0 573.696 167.557">
  <g id="Group_1" data-name="Group 1" transform="translate(-229.304 -158.974)">
    <path id="Path_1" data-name="Path 1" d="M1370.525,105.128l5.442-7.619,5.8-6.077,7.166-5.261,7.075-4.082,6.349-2.54,7.619-1.814,3.628-.454,2.936-.294,3.113-.268,3.274.268,3.435.294,2.9.454,3.65.7,2.63.644,3.918,1.288,4.347,1.878,3.167,1.664,4.133,2.576,3.113,2.147L1456.958,91l2.362,2.254,2.254,2.254,1.986,2.361,2.093,2.9,1.932,2.9,2.436,4.92L1473,115.3l1.616,5.372,1.073,4.34a5.427,5.427,0,0,1,0,3.356,2.1,2.1,0,0,1-.721.914,5.924,5.924,0,0,1-2.07,1.212,34,34,0,0,1-5.889,1.627,52.7,52.7,0,0,1-6.055.828l-9.475.688-6.249.291h-9.1l-2.5-.076a8.885,8.885,0,0,1-1.828-.215,1.882,1.882,0,0,1-1.011-.495,1.534,1.534,0,0,1-.621-.878,1.7,1.7,0,0,1-.128-.731l-.058-19.717a4.666,4.666,0,0,0-.867-2.176,3.152,3.152,0,0,0-2.328-1.1,2.9,2.9,0,0,0-2.141,1.1,4.973,4.973,0,0,0-.812,2.176l.022,27.01a2.478,2.478,0,0,0,.867,1.6,3.807,3.807,0,0,0,2.063.424H1453.2l5.1.322,4.938.805,2.952.751,3.113,1.5,2.63,2.952.966,2.523v2.844l-.966,5.313-2.9,10.144-4.24,10.358-8.373,16.1-9.768,15.35-11.324,15.618-13.417,16.316-2.147,2.522-5.474-6.655-8.373-11.485-11.431-16.96-6.226-10.3-1.449-3.6-.322-2.2,1.771-1.234,3.864-1.02,6.494-.912,7.353-.322,6.44.322,3.972.912a5.708,5.708,0,0,1,1.357.9,4.619,4.619,0,0,1,.945,1.345l-.148,4.915v7.553a3.837,3.837,0,0,0,.839,1.929,2.963,2.963,0,0,0,2,.849,3.618,3.618,0,0,0,2.532-1.1,2.427,2.427,0,0,0,.581-1.314l.189-20.935a2,2,0,0,0-1.155-2.143c-1.422-.6-4.723-.376-4.723-.376h-34.08l-4.133-.859-2.147-1.61-1.556-2.039-4.294-8.211-3.864-10.144-3.435-11.646-1.664-8.48-.322-7.728.545-8.236,1.71-6.938,2.629-6.778,1.825-3.381Z" transform="translate(-1134 82.254)" fill="#1f0"/>
    <text id="Swigg-y" transform="translate(359 284)" font-size="102" font-family="Poppins-Bold, Poppins" font-weight="700"><tspan x="0" y="0">Swigg-y</tspan></text>
  </g>
</svg>
